<?xml version="1.0" encoding="utf-8"?>
<!-- Generator: Adobe Illustrator 19.0.0, SVG Export Plug-In . SVG Version: 6.00 Build 0)  -->
<svg version="1.1" id="Layer_1" xmlns="http://www.w3.org/2000/svg" xmlns:xlink="http://www.w3.org/1999/xlink" x="0px" y="0px"
	 viewBox="0 0 1024 768" style="enable-background:new 0 0 1024 768;" xml:space="preserve">
<style type="text/css">
	.st0{fill:none;}
	.st1{fill:#87C235;}
	.st2{fill:#6C6F71;}
</style>
<g>
	<path class="st0" d="M517.7,571.7c-81.1,0-162.3,0-243.4,0.1c-3.8,0-4.3-1-4.3-4.4c0.1-127.8,0.1-255.6,0-383.4
		c0-3.5,0.6-4.4,4.3-4.4c162.1,0.1,324.2,0.1,486.4,0c3.9,0,4.5,1.1,4.5,4.7c-0.1,127.6-0.1,255.3,0,382.9c0,3.7-0.7,4.6-4.6,4.6
		C679.6,571.7,598.6,571.7,517.7,571.7z M584.1,430.6c5.2,0.2,7.9-2.5,9.8-6.4c5.4-11.3,9.4-23.1,11.3-35.5c1.3-8.7,1.4-8.7,10-9.8
		c6.2-0.7,9.2-4.4,8.5-10.5c-0.4-3.8-1-7.6-1.7-11.4c-7.6-43.8-39.8-77.9-81.6-86.6c-3.1-0.6-6.9-0.3-9.1-2c-2.7-2-0.7-6.2-1.2-9.3
		c-0.6-4.5-4-7.6-8.4-7.6c-4.4,0-8,3-8.5,7.5c-0.2,1.8-0.3,3.7,0,5.5c0.5,3.5-1.2,4.7-4.3,4.9c-5.3,0.4-10.5,1.8-15.6,3.3
		c-42.1,13-70.3,52-73.8,96.9c-0.4,4.8,2.7,8.3,7.4,9.1c2,0.3,4,0.7,5.9,0.6c3.3-0.3,4.1,1.1,4.5,4.2c1.5,14.4,5.9,28,12.2,40.9
		c2.4,4.9,6.1,6.8,11.4,5.8c2.1-0.4,4.4-0.4,6.4-1.2c3.9-1.4,5,0.1,6,3.7c7,24.2,22.8,41.8,43.2,55.7c3.4,2.3,6.9,2.4,10.3,0.1
		c20.1-13.7,35.7-30.9,42.9-54.7c1.3-4.3,2.4-6.5,7.3-4.6C579.2,430.3,582,430.3,584.1,430.6z M319.8,375.7c0,38,0,76,0,114
		c0,6.7,0.1,13.3,0,20c0,2.4,0.4,3.7,3.2,3.7c22.7-0.1,45.3-0.1,68,0c2.4,0,3.3-0.8,3.2-3.2c-0.1-4.7-0.3-9.3,0-14
		c0.2-3.4-1.1-4.2-4.3-4.2c-12.2,0.2-24.3-0.1-36.5,0.1c-3.9,0.1-5-1.1-5-5c0.1-74.5,0.1-149,0-223.5c0-3.7,1-4.9,4.8-4.8
		c12.3,0.2,24.7,0,37,0.1c3,0,4.2-0.7,4-3.9c-0.3-4.3-0.3-8.7,0-13c0.3-3.7-1.2-4.4-4.6-4.4c-21.5,0.1-43,0.2-64.5,0
		c-4.5-0.1-5.5,1.2-5.5,5.5C319.9,287.4,319.8,331.5,319.8,375.7z M714.3,376.2c0-44.5,0-89,0.1-133.5c0-3.9-0.9-5.1-4.9-5
		c-21.7,0.2-43.3,0.1-65,0.1c-2.8,0-4.9,0-4.6,3.8c0.3,4.5,0.3,9,0,13.5c-0.2,3.2,1,3.9,4,3.9c12.2-0.1,24.3,0.1,36.5-0.2
		c4.2-0.1,5.3,1.1,5.3,5.3c-0.1,74.3-0.1,148.6,0,223c0,3.9-1.1,5.1-5,5c-12.2-0.2-24.3,0-36.5-0.1c-3.2,0-4.5,0.7-4.3,4.2
		c0.3,4.1,0.3,8.3,0,12.5c-0.3,3.8,1,4.8,4.7,4.8c21.3-0.2,42.7-0.2,64,0c4.5,0,5.9-1,5.8-5.7C714.2,463.9,714.3,420,714.3,376.2z"
		/>
	<path class="st1" d="M584.1,430.6c-2.1-0.3-4.9-0.3-7.3-1.2c-4.8-1.8-6,0.3-7.3,4.6c-7.2,23.7-22.8,41-42.9,54.7
		c-3.4,2.3-6.9,2.2-10.3-0.1c-20.4-13.9-36.1-31.5-43.2-55.7c-1-3.6-2.2-5.2-6-3.7c-2,0.7-4.2,0.8-6.4,1.2c-5.3,1-9-1-11.4-5.8
		c-6.3-13-10.7-26.6-12.2-40.9c-0.3-3.2-1.2-4.5-4.5-4.2c-2,0.2-4-0.3-5.9-0.6c-4.7-0.7-7.8-4.2-7.4-9.1c3.5-44.9,31.7-84,73.8-96.9
		c5.1-1.6,10.3-2.9,15.6-3.3c3.2-0.2,4.9-1.4,4.3-4.9c-0.3-1.8-0.2-3.7,0-5.5c0.5-4.5,4.1-7.5,8.5-7.5c4.4,0,7.8,3.1,8.4,7.6
		c0.5,3.2-1.5,7.3,1.2,9.3c2.3,1.7,6.1,1.3,9.1,2c41.8,8.6,74,42.8,81.6,86.6c0.7,3.8,1.2,7.6,1.7,11.4c0.7,6.1-2.3,9.8-8.5,10.5
		c-8.6,1-8.6,1-10,9.8c-1.9,12.4-5.9,24.2-11.3,35.5C592,428.1,589.3,430.8,584.1,430.6z M520.9,285.6c-4.8-0.2-10.1,0.6-15.3,1.7
		c-32.6,6.7-59.6,34.7-67.4,70.9c-0.7,3.3,0.1,4.8,3.7,4c2.4-0.5,5-0.5,7.4-1c29.6-6.1,50.1-23.6,63-50.4c2-4.1,3.8-7.9,9.1-8
		c5.6-0.1,7.4,4,9.4,8.2c14.3,29,36.8,47.2,69.6,51.1c5.1,0.6,5.4,0.2,4.2-4.9c-1.4-6-3.3-11.8-5.8-17.5
		C585.1,307,554.3,285.6,520.9,285.6z M521.5,330.3c-1.1,1.6-2.1,2.9-3,4.3c-7,10-15.3,19.1-25.4,25.9c-5,3.3-5.7,6.9-4.6,12
		c4.2,19.4,15.7,33.8,30.7,46c2.1,1.7,3.4,1,5.1-0.4c9.7-7.8,18-16.9,23.9-27.9c3.6-6.6,6-13.7,7-21.2c0.4-3.2-0.3-5.2-3.1-7
		c-8.7-5.8-16-13-22.6-21.1C526.8,337.6,524.3,334,521.5,330.3z M554.4,425.3c0.4-3.7-2.1-3.5-3.4-4.5c-1.9-1.4-3.5-1.1-5.2,0.7
		c-5.5,5.8-11.7,10.9-18.3,15.4c-4.1,2.7-8,2.8-12,0c-6.4-4.3-12.4-9-17.6-14.7c-2.5-2.8-4.4-2.1-7.3-0.9c-3.4,1.5-2,3.8-1.5,5.8
		c4.8,17.8,16,31.1,29.9,42.5c2,1.6,3.4,1.1,5.2-0.3c11.7-9.6,21.6-20.7,27.2-35C552.8,431.1,553.7,427.7,554.4,425.3z M453.9,380.5
		c1.2,10.8,3.9,20.5,7.9,29.9c0.7,1.7,1.5,2.3,3.4,1.8c5.5-1.4,10.9-3,16.1-5.2c2.3-1,2.6-2,1.3-4.1c-5.1-8.3-8.8-17.1-10.6-26.7
		c-0.5-2.5-1.5-3.3-4.1-2.4c-3.6,1.2-7.3,2.2-11,3.1C454.4,377.6,453.3,378.7,453.9,380.5z M589.2,380.4c0.6-2-0.8-2.9-3.1-3.4
		c-3.7-0.9-7.4-2-11-3.2c-2.3-0.7-3.4-0.2-3.8,2.2c-1.8,9.7-5.6,18.8-10.8,27.2c-1.4,2.3-0.5,3.2,1.5,4c5.1,2.1,10.3,3.7,15.6,5.1
		c2,0.5,3,0,3.8-1.9C585.3,400.9,588,391.2,589.2,380.4z"/>
	<path class="st2" d="M319.8,375.7c0-44.2,0.1-88.3-0.1-132.5c0-4.4,1-5.6,5.5-5.5c21.5,0.3,43,0.2,64.5,0c3.4,0,4.8,0.7,4.6,4.4
		c-0.3,4.3-0.3,8.7,0,13c0.2,3.2-1,3.9-4,3.9c-12.3-0.1-24.7,0.1-37-0.1c-3.8-0.1-4.8,1.1-4.8,4.8c0.1,74.5,0.1,149,0,223.5
		c0,4,1.1,5.1,5,5c12.2-0.2,24.3,0,36.5-0.1c3.2,0,4.5,0.8,4.3,4.2c-0.3,4.6-0.2,9.3,0,14c0.1,2.4-0.8,3.2-3.2,3.2
		c-22.7-0.1-45.3-0.1-68,0c-2.8,0-3.3-1.3-3.2-3.7c0.1-6.7,0-13.3,0-20C319.8,451.7,319.8,413.7,319.8,375.7z"/>
	<path class="st2" d="M714.3,376.2c0,43.8-0.1,87.7,0.1,131.5c0,4.7-1.4,5.8-5.8,5.7c-21.3-0.2-42.7-0.2-64,0c-3.8,0-5-1-4.7-4.8
		c0.3-4.1,0.3-8.3,0-12.5c-0.2-3.4,1.1-4.2,4.3-4.2c12.2,0.1,24.3-0.1,36.5,0.1c4,0.1,5-1.1,5-5c-0.1-74.3-0.1-148.6,0-223
		c0-4.2-1.2-5.4-5.3-5.3c-12.2,0.3-24.3,0-36.5,0.2c-3,0-4.2-0.8-4-3.9c0.3-4.5,0.3-9,0-13.5c-0.3-3.8,1.8-3.8,4.6-3.8
		c21.7,0.1,43.3,0.1,65-0.1c4,0,5,1.2,4.9,5C714.2,287.2,714.3,331.7,714.3,376.2z"/>
	<path class="st0" d="M520.9,285.6c33.5,0,64.2,21.4,78,53.9c2.4,5.7,4.3,11.5,5.8,17.5c1.2,5.1,0.8,5.5-4.2,4.9
		c-32.8-3.9-55.2-22-69.6-51.1c-2.1-4.2-3.9-8.3-9.4-8.2c-5.3,0.1-7.1,4-9.1,8c-13,26.8-33.5,44.4-63,50.4c-2.4,0.5-5,0.5-7.4,1
		c-3.7,0.8-4.4-0.7-3.7-4c7.8-36.2,34.8-64.2,67.4-70.9C510.8,286.2,516.1,285.5,520.9,285.6z"/>
	<path class="st0" d="M521.5,330.3c2.8,3.7,5.3,7.2,8,10.6c6.5,8.1,13.9,15.3,22.6,21.1c2.8,1.9,3.6,3.9,3.1,7
		c-1,7.5-3.5,14.6-7,21.2c-5.9,11-14.1,20.1-23.9,27.9c-1.7,1.4-3.1,2.1-5.1,0.4c-15-12.2-26.5-26.6-30.7-46
		c-1.1-5.1-0.5-8.7,4.6-12c10.2-6.8,18.4-15.8,25.4-25.9C519.4,333.2,520.3,331.9,521.5,330.3z"/>
	<path class="st0" d="M554.4,425.3c-0.8,2.4-1.6,5.8-2.9,9c-5.7,14.3-15.5,25.4-27.2,35c-1.8,1.4-3.2,2-5.2,0.3
		c-13.9-11.4-25.1-24.7-29.9-42.5c-0.5-2-2-4.3,1.5-5.8c2.9-1.3,4.8-1.9,7.3,0.9c5.1,5.7,11.2,10.4,17.6,14.7c4.1,2.8,8,2.7,12,0
		c6.6-4.5,12.8-9.5,18.3-15.4c1.7-1.8,3.2-2.1,5.2-0.7C552.4,421.8,554.9,421.6,554.4,425.3z"/>
	<path class="st0" d="M453.9,380.5c-0.5-1.8,0.5-3,2.9-3.6c3.7-0.9,7.4-1.9,11-3.1c2.6-0.9,3.6-0.1,4.1,2.4
		c1.8,9.6,5.5,18.4,10.6,26.7c1.3,2.1,1,3.2-1.3,4.1c-5.2,2.2-10.6,3.8-16.1,5.2c-1.9,0.5-2.7-0.1-3.4-1.8
		C457.8,401.1,455.1,391.3,453.9,380.5z"/>
	<path class="st0" d="M589.2,380.4c-1.2,10.8-3.9,20.5-7.8,29.9c-0.8,1.9-1.7,2.4-3.8,1.9c-5.3-1.3-10.5-2.9-15.6-5.1
		c-2.1-0.9-2.9-1.8-1.5-4c5.2-8.4,8.9-17.4,10.8-27.2c0.5-2.4,1.6-2.9,3.8-2.2c3.6,1.2,7.3,2.2,11,3.2
		C588.4,377.5,589.8,378.4,589.2,380.4z"/>
</g>
</svg>
