<?xml version="1.0" encoding="utf-8"?>
<!-- Generator: Adobe Illustrator 19.0.0, SVG Export Plug-In . SVG Version: 6.00 Build 0)  -->
<svg version="1.1" id="Capa_1" xmlns="http://www.w3.org/2000/svg" xmlns:xlink="http://www.w3.org/1999/xlink" x="0px" y="0px"
	 viewBox="-267 68.6 424.4 424.4" style="enable-background:new -267 68.6 424.4 424.4;" xml:space="preserve">
<style type="text/css">
	.st0{fill:#6B6E70;}
</style>
<g>
	<g>
		<g>
			<circle class="st0" cx="-96.8" cy="442.8" r="50.2"/>
			<path class="st0" d="M49.7,392.6L49.7,392.6c-27.7,0-50.2,22.5-50.2,50.2S22,493,49.7,493s50.2-22.5,50.2-50.2
				S77.4,392.6,49.7,392.6z"/>
			<path class="st0" d="M135.2,341.4h-261.6l-5.1-29.7h215c6.3,0,12-3.8,14.3-9.7L149,173c3.1-7.9-0.8-16.8-8.7-19.9
				c-1.8-0.7-3.7-1.1-5.7-1.1h-292.9l-12.3-70.7c-1.3-7.5-7.8-12.9-15.4-12.8h-58.9c-8.5,0-15.4,6.9-15.4,15.4s6.9,15.4,15.4,15.4
				h46.1l44,260.1c1.3,7.5,7.8,12.9,15.4,12.8h274.4c8.5,0,15.4-6.9,15.4-15.4C150.5,348.3,143.7,341.4,135.2,341.4z"/>
		</g>
	</g>
</g>
</svg>
