<?xml version="1.0" encoding="utf-8"?>
<!-- Generator: Adobe Illustrator 19.0.0, SVG Export Plug-In . SVG Version: 6.00 Build 0)  -->
<svg version="1.1" xmlns="http://www.w3.org/2000/svg" xmlns:xlink="http://www.w3.org/1999/xlink" x="0px" y="0px"
	 viewBox="412 -284 1024 768" style="enable-background:new 412 -284 1024 768;" xml:space="preserve">
<style type="text/css">
	.st0{fill:none;}
	.st1{fill:#87C235;}
	.st2{fill:#6C6F71;}
</style>
<g id="Layer_1">
	<g>
		<path class="st0" d="M928.4,434.1c-136.2,0-272.5,0-408.7,0.2c-6.4,0-7.2-1.7-7.2-7.4c0.2-214.6,0.2-429.2,0-643.8
			c0-5.9,1-7.4,7.2-7.4c272.2,0.2,544.4,0.2,816.8,0c6.5,0,7.6,1.8,7.6,7.9c-0.2,214.3-0.2,428.7,0,643c0,6.2-1.2,7.7-7.7,7.7
			C1200.3,434.1,1064.2,434.1,928.4,434.1z M1039.9,197.2c8.7,0.3,13.3-4.2,16.5-10.7c9.1-19,15.8-38.8,19-59.6
			c2.2-14.6,2.4-14.6,16.8-16.5c10.4-1.2,15.4-7.4,14.3-17.6c-0.7-6.4-1.7-12.8-2.9-19.1c-12.8-73.5-66.8-130.8-137-145.4
			c-5.2-1-11.6-0.5-15.3-3.4c-4.5-3.4-1.2-10.4-2-15.6c-1-7.6-6.7-12.8-14.1-12.8c-7.4,0-13.4,5-14.3,12.6c-0.3,3-0.5,6.2,0,9.2
			c0.8,5.9-2,7.9-7.2,8.2c-8.9,0.7-17.6,3-26.2,5.5c-70.7,21.8-118,87.3-123.9,162.7c-0.7,8.1,4.5,13.9,12.4,15.3
			c3.4,0.5,6.7,1.2,9.9,1c5.5-0.5,6.9,1.8,7.6,7.1c2.5,24.2,9.9,47,20.5,68.7c4,8.2,10.2,11.4,19.1,9.7c3.5-0.7,7.4-0.7,10.7-2
			c6.5-2.4,8.4,0.2,10.1,6.2c11.8,40.6,38.3,70.2,72.5,93.5c5.7,3.9,11.6,4,17.3,0.2c33.8-23,59.9-51.9,72-91.9
			c2.2-7.2,4-10.9,12.3-7.7C1031.7,196.7,1036.4,196.7,1039.9,197.2z M596.1,105c0,63.8,0,127.6,0,191.4c0,11.3,0.2,22.3,0,33.6
			c0,4,0.7,6.2,5.4,6.2c38.1-0.2,76.1-0.2,114.2,0c4,0,5.5-1.3,5.4-5.4c-0.2-7.9-0.5-15.6,0-23.5c0.3-5.7-1.8-7.1-7.2-7.1
			c-20.5,0.3-40.8-0.2-61.3,0.2c-6.5,0.2-8.4-1.8-8.4-8.4c0.2-125.1,0.2-250.2,0-375.3c0-6.2,1.7-8.2,8.1-8.1
			c20.7,0.3,41.5,0,62.1,0.2c5,0,7.1-1.2,6.7-6.5c-0.5-7.2-0.5-14.6,0-21.8c0.5-6.2-2-7.4-7.7-7.4c-36.1,0.2-72.2,0.3-108.3,0
			c-7.6-0.2-9.2,2-9.2,9.2C596.3-43.3,596.1,30.8,596.1,105z M1258.5,105.8c0-74.7,0-149.4,0.2-224.2c0-6.5-1.5-8.6-8.2-8.4
			c-36.4,0.3-72.7,0.2-109.1,0.2c-4.7,0-8.2,0-7.7,6.4c0.5,7.6,0.5,15.1,0,22.7c-0.3,5.4,1.7,6.5,6.7,6.5
			c20.5-0.2,40.8,0.2,61.3-0.3c7.1-0.2,8.9,1.8,8.9,8.9c-0.2,124.8-0.2,249.5,0,374.5c0,6.5-1.8,8.6-8.4,8.4
			c-20.5-0.3-40.8,0-61.3-0.2c-5.4,0-7.6,1.2-7.2,7.1c0.5,6.9,0.5,13.9,0,21c-0.5,6.4,1.7,8.1,7.9,8.1c35.8-0.3,71.7-0.3,107.5,0
			c7.6,0,9.9-1.7,9.7-9.6C1258.4,253.1,1258.5,179.4,1258.5,105.8z"/>
		<path class="st1" d="M1039.9,197.2c-3.5-0.5-8.2-0.5-12.3-2c-8.1-3-10.1,0.5-12.3,7.7c-12.1,39.8-38.3,68.8-72,91.9
			c-5.7,3.9-11.6,3.7-17.3-0.2c-34.3-23.3-60.6-52.9-72.5-93.5c-1.7-6-3.7-8.7-10.1-6.2c-3.4,1.2-7.1,1.3-10.7,2
			c-8.9,1.7-15.1-1.7-19.1-9.7c-10.6-21.8-18-44.7-20.5-68.7c-0.5-5.4-2-7.6-7.6-7.1c-3.4,0.3-6.7-0.5-9.9-1
			c-7.9-1.2-13.1-7.1-12.4-15.3C769.1,19.7,816.4-46,887.1-67.6c8.6-2.7,17.3-4.9,26.2-5.5c5.4-0.3,8.2-2.4,7.2-8.2
			c-0.5-3-0.3-6.2,0-9.2c0.8-7.6,6.9-12.6,14.3-12.6c7.4,0,13.1,5.2,14.1,12.8c0.8,5.4-2.5,12.3,2,15.6c3.9,2.9,10.2,2.2,15.3,3.4
			c70.2,14.4,124.3,71.9,137,145.4c1.2,6.4,2,12.8,2.9,19.1c1.2,10.2-3.9,16.5-14.3,17.6c-14.4,1.7-14.4,1.7-16.8,16.5
			c-3.2,20.8-9.9,40.6-19,59.6C1053.2,193,1048.6,197.5,1039.9,197.2z M933.8-46.3c-8.1-0.3-17,1-25.7,2.9
			C853.4-32.1,808,14.9,794.9,75.7c-1.2,5.5,0.2,8.1,6.2,6.7c4-0.8,8.4-0.8,12.4-1.7c49.7-10.2,84.1-39.6,105.8-84.6
			c3.4-6.9,6.4-13.3,15.3-13.4c9.4-0.2,12.4,6.7,15.8,13.8c24,48.7,61.8,79.3,116.9,85.8c8.6,1,9.1,0.3,7.1-8.2
			c-2.4-10.1-5.5-19.8-9.7-29.4C1041.6-10.4,989.9-46.3,933.8-46.3z M934.8,28.7c-1.8,2.7-3.5,4.9-5,7.2
			C918,52.7,904.1,68,887.1,79.4c-8.4,5.5-9.6,11.6-7.7,20.2c7.1,32.6,26.4,56.8,51.6,77.2c3.5,2.9,5.7,1.7,8.6-0.7
			c16.3-13.1,30.2-28.4,40.1-46.8c6-11.1,10.1-23,11.8-35.6c0.7-5.4-0.5-8.7-5.2-11.8c-14.6-9.7-26.9-21.8-37.9-35.4
			C943.7,41,939.5,35,934.8,28.7z M990,188.3c0.7-6.2-3.5-5.9-5.7-7.6c-3.2-2.4-5.9-1.8-8.7,1.2c-9.2,9.7-19.6,18.3-30.7,25.9
			c-6.9,4.5-13.4,4.7-20.2,0c-10.7-7.2-20.8-15.1-29.6-24.7c-4.2-4.7-7.4-3.5-12.3-1.5c-5.7,2.5-3.4,6.4-2.5,9.7
			c8.1,29.9,26.9,52.2,50.2,71.4c3.4,2.7,5.7,1.8,8.7-0.5c19.6-16.1,36.3-34.8,45.7-58.8C987.3,198,988.8,192.3,990,188.3z
			 M821.3,113c2,18.1,6.5,34.4,13.3,50.2c1.2,2.9,2.5,3.9,5.7,3c9.2-2.4,18.3-5,27-8.7c3.9-1.7,4.4-3.4,2.2-6.9
			c-8.6-13.9-14.8-28.7-17.8-44.8c-0.8-4.2-2.5-5.5-6.9-4c-6,2-12.3,3.7-18.5,5.2C822.1,108.2,820.3,110,821.3,113z M1048.5,112.9
			c1-3.4-1.3-4.9-5.2-5.7c-6.2-1.5-12.4-3.4-18.5-5.4c-3.9-1.2-5.7-0.3-6.4,3.7c-3,16.3-9.4,31.6-18.1,45.7
			c-2.4,3.9-0.8,5.4,2.5,6.7c8.6,3.5,17.3,6.2,26.2,8.6c3.4,0.8,5,0,6.4-3.2C1041.9,147.3,1046.4,131,1048.5,112.9z"/>
		<path class="st0" d="M933.8-46.3c56.3,0,107.8,35.9,131,90.5c4,9.6,7.2,19.3,9.7,29.4c2,8.6,1.3,9.2-7.1,8.2
			c-55.1-6.5-92.7-36.9-116.9-85.8c-3.5-7.1-6.5-13.9-15.8-13.8c-8.9,0.2-11.9,6.7-15.3,13.4c-21.8,45-56.3,74.6-105.8,84.6
			c-4,0.8-8.4,0.8-12.4,1.7c-6.2,1.3-7.4-1.2-6.2-6.7c13.1-60.8,58.4-107.8,113.2-119.1C916.8-45.3,925.7-46.5,933.8-46.3z"/>
		<path class="st0" d="M934.8,28.7c4.7,6.2,8.9,12.1,13.4,17.8c10.9,13.6,23.3,25.7,37.9,35.4c4.7,3.2,6,6.5,5.2,11.8
			c-1.7,12.6-5.9,24.5-11.8,35.6c-9.9,18.5-23.7,33.8-40.1,46.8c-2.9,2.4-5.2,3.5-8.6,0.7c-25.2-20.5-44.5-44.7-51.6-77.2
			c-1.8-8.6-0.8-14.6,7.7-20.2C904,68,917.8,52.9,929.6,35.9C931.3,33.6,932.8,31.4,934.8,28.7z"/>
		<path class="st0" d="M990,188.3c-1.3,4-2.7,9.7-4.9,15.1c-9.6,24-26,42.7-45.7,58.8c-3,2.4-5.4,3.4-8.7,0.5
			c-23.3-19.1-42.1-41.5-50.2-71.4c-0.8-3.4-3.4-7.2,2.5-9.7c4.9-2.2,8.1-3.2,12.3,1.5c8.6,9.6,18.8,17.5,29.6,24.7
			c6.9,4.7,13.4,4.5,20.2,0c11.1-7.6,21.5-16,30.7-25.9c2.9-3,5.4-3.5,8.7-1.2C986.7,182.4,990.9,182.1,990,188.3z"/>
		<path class="st0" d="M821.3,113c-0.8-3,0.8-5,4.9-6c6.2-1.5,12.4-3.2,18.5-5.2c4.4-1.5,6-0.2,6.9,4c3,16.1,9.2,30.9,17.8,44.8
			c2.2,3.5,1.7,5.4-2.2,6.9c-8.7,3.7-17.8,6.4-27,8.7c-3.2,0.8-4.5-0.2-5.7-3C827.8,147.6,823.3,131.2,821.3,113z"/>
		<path class="st0" d="M1048.5,112.9c-2,18.1-6.5,34.4-13.1,50.2c-1.3,3.2-2.9,4-6.4,3.2c-8.9-2.2-17.6-4.9-26.2-8.6
			c-3.5-1.5-4.9-3-2.5-6.7c8.7-14.1,14.9-29.2,18.1-45.7c0.8-4,2.7-4.9,6.4-3.7c6,2,12.3,3.7,18.5,5.4
			C1047.1,108,1049.5,109.5,1048.5,112.9z"/>
	</g>
</g>
<g id="Layer_2">
	<path class="st2" d="M596.1,105c0-74.2,0.2-148.3-0.2-222.5c0-7.4,1.7-9.4,9.2-9.2c36.1,0.5,72.2,0.3,108.3,0
		c5.7,0,8.1,1.2,7.7,7.4c-0.5,7.2-0.5,14.6,0,21.8c0.3,5.4-1.7,6.5-6.7,6.5c-20.7-0.2-41.5,0.2-62.1-0.2c-6.4-0.2-8.1,1.8-8.1,8.1
		c0.2,125.1,0.2,250.2,0,375.3c0,6.7,1.8,8.6,8.4,8.4c20.5-0.3,40.8,0,61.3-0.2c5.4,0,7.6,1.3,7.2,7.1c-0.5,7.7-0.3,15.6,0,23.5
		c0.2,4-1.3,5.4-5.4,5.4c-38.1-0.2-76.1-0.2-114.2,0c-4.7,0-5.5-2.2-5.4-6.2c0.2-11.3,0-22.3,0-33.6
		C596.1,232.6,596.1,168.8,596.1,105z"/>
</g>
<g id="Layer_3">
	<path class="st2" d="M1258.5,105.8c0,73.5-0.2,147.3,0.2,220.8c0,7.9-2.4,9.7-9.7,9.6c-35.8-0.3-71.7-0.3-107.5,0
		c-6.4,0-8.4-1.7-7.9-8.1c0.5-6.9,0.5-13.9,0-21c-0.3-5.7,1.8-7.1,7.2-7.1c20.5,0.2,40.8-0.2,61.3,0.2c6.7,0.2,8.4-1.8,8.4-8.4
		c-0.2-124.8-0.2-249.5,0-374.5c0-7.1-2-9.1-8.9-8.9c-20.5,0.5-40.8,0-61.3,0.3c-5,0-7.1-1.3-6.7-6.5c0.5-7.6,0.5-15.1,0-22.7
		c-0.5-6.4,3-6.4,7.7-6.4c36.4,0.2,72.7,0.2,109.1-0.2c6.7,0,8.4,2,8.2,8.4C1258.4-43.6,1258.5,31.1,1258.5,105.8z"/>
</g>
</svg>
