<?xml version="1.0" encoding="utf-8"?>
<!-- Generator: Adobe Illustrator 19.0.0, SVG Export Plug-In . SVG Version: 6.00 Build 0)  -->
<svg version="1.1" id="Capa_1" xmlns="http://www.w3.org/2000/svg" xmlns:xlink="http://www.w3.org/1999/xlink" x="0px" y="0px"
	 viewBox="-223 25 512 512" style="enable-background:new -223 25 512 512;" xml:space="preserve">
<style type="text/css">
	.st0{fill:#777777;}
</style>
<g>
	<g>
		<g>
			<path class="st0" d="M25.2,368.2c-14.6,0-26.5,12.2-26.5,26.8c0,14.3,11.5,26.8,26.5,26.8S52,409.4,52,395.1
				C52,380.4,39.8,368.2,25.2,368.2z"/>
			<path class="st0" d="M29.7,165c-47.1,0-68.7,27.9-68.7,46.7c0,13.6,11.5,19.9,20.9,19.9c18.8,0,11.2-26.8,46.7-26.8
				c17.4,0,31.4,7.7,31.4,23.7c0,18.8-19.5,29.6-31,39.4c-10.1,8.7-23.4,23-23.4,53c0,18.1,4.9,23.4,19.2,23.4
				c17.1,0,20.6-7.7,20.6-14.3c0-18.1,0.4-28.6,19.5-43.6c9.4-7.3,39-31,39-63.8S74.3,165,29.7,165z"/>
			<path class="st0" d="M33,25c-141.5,0-256,114.5-256,256v236c0,11,9,20,20,20H33c141.5,0,256-114.5,256-256
				C289,139.5,174.5,25,33,25z M33,497h-216V281c0-119.4,96.6-216,216-216c119.4,0,216,96.6,216,216C249,400.4,152.4,497,33,497z"/>
		</g>
	</g>
</g>
</svg>
