<?xml version="1.0" encoding="utf-8"?>
<!-- Generator: Adobe Illustrator 19.0.0, SVG Export Plug-In . SVG Version: 6.00 Build 0)  -->
<svg version="1.1" id="Layer_1" xmlns="http://www.w3.org/2000/svg" xmlns:xlink="http://www.w3.org/1999/xlink" x="0px" y="0px"
	 viewBox="0 0 960 560" style="enable-background:new 0 0 960 560;" xml:space="preserve">
<style type="text/css">
	.st0{fill:#E8E8E8;}
	.st1{fill:#D9B08C;}
</style>
<g id="XMLID_1_">
	<path id="XMLID_3_" class="st0" d="M213.1,108.1c9,0,16.4,2.9,22,8.5c5.6,5.6,8.5,13,8.5,22v93.6c0,4.5-0.7,8.7-2.3,12.4
		c-1.4,3.8-3.6,6.9-6.3,9.6s-6,4.7-9.7,6.3c-3.8,1.4-7.9,2.3-12.3,2.3h-80.6V108.3h80.8V108.1z M205.3,233.4c4.9,0,7.2-2.3,7.2-7.2
		v-81.7c0-4.9-2.5-7.2-7.2-7.2h-41.8v96.1H205.3z"/>
	<path id="XMLID_6_" class="st0" d="M273.8,108.1h30.8v154.5h-30.8V108.1z"/>
	<path id="XMLID_8_" class="st0" d="M415.9,143.6c0-4.9-2.5-7.2-7.2-7.2h-35.3c-4.9,0-7.2,2.5-7.2,7.2v83.3c0,4.9,2.3,7.2,7.2,7.2
		h35.3c4.9,0,7.2-2.3,7.2-7.2V204h-28.3v-27.9h59.3v57c0,4.5-0.7,8.7-2.3,12.4c-1.4,3.8-3.6,6.9-6.3,9.6c-2.7,2.7-6,4.7-9.7,6.3
		c-3.8,1.4-7.9,2.3-12.3,2.3h-50.7c-4.5,0-8.7-0.7-12.4-2.3c-3.8-1.4-6.9-3.6-9.6-6.3s-4.7-5.8-6.3-9.6c-1.4-3.8-2.3-7.9-2.3-12.4
		v-95.4c0-4.5,0.7-8.5,2.3-12.3c1.4-3.8,3.6-7,6.3-9.7c2.7-2.7,5.8-4.7,9.6-6.3c3.8-1.4,7.9-2.3,12.4-2.3h50.8c9,0,16.4,2.9,22,8.5
		c5.6,5.6,8.5,13,8.5,22v20.2h-30.8v-14.1H415.9z"/>
	<path id="XMLID_10_" class="st0" d="M476.5,108.1h30.8v154.5h-30.8V108.1z"/>
	<path id="XMLID_12_" class="st0" d="M601.1,136.8v125.9h-30.8V136.8h-40.4v-28.9h111.6v28.9H601.1z"/>
	<path id="XMLID_14_" class="st0" d="M668.2,262.6h-32.1l49.8-154.5h36.1l49.8,154.5h-33.4l-10.1-34.8h-49.9L668.2,262.6z
		 M686.9,198.6h33L703.5,142L686.9,198.6z"/>
	<path id="XMLID_17_" class="st0" d="M823.1,108.1v125.3H888v29.2h-95.7V108.1H823.1z"/>
	<path id="XMLID_19_" class="st1" d="M329.9,345c7.2,0,13.2,2.3,17.7,6.9s6.9,10.5,6.9,17.7V387c0,3.6-0.7,7-2.3,10.3
		c-1.6,3.2-4.3,6-8.5,8.3c4.3,2,7.4,4.7,9.4,8.1c1.8,3.2,2.9,6.9,2.9,10.5v20.2c0,3.6-0.5,7-1.8,9.9c-1.3,3.1-2.9,5.6-5,7.6
		c-2.2,2.2-4.7,3.8-7.8,5c-3.1,1.3-6.3,1.8-9.9,1.8h-63.8V345H329.9z M323.8,394.6c2.3,0,3.8-0.4,4.7-1.1c0.7-0.7,1.3-2.3,1.3-4.7
		v-14.8c0-4-2-5.8-5.8-5.8h-31.6v26.5h31.4V394.6z M325.1,445.8c4,0,5.8-2,5.8-5.8v-17.9c0-2.7-0.7-4.1-2.2-4.7
		c-1.4-0.5-3.4-0.7-5.8-0.7h-30.8V446h33V445.8z"/>
	<path id="XMLID_23_" class="st1" d="M379,345h24.7v123.7H379V345z"/>
	<path id="XMLID_25_" class="st1" d="M495.3,468.7l-20-45.8h-20v45.8h-24.7V345h63.1c7.2,0,13.2,2.3,17.7,6.9
		c4.5,4.5,6.9,10.5,6.9,17.7v29c0,5.8-1.4,10.8-4.5,15c-3.1,4.1-7.2,6.9-12.3,8.5l20.6,46.9h-26.7V468.7z M493.5,374.2
		c0-4-2-5.8-5.8-5.8h-32.1v31.4h32.1c4,0,5.8-2,5.8-5.8V374.2z"/>
	<path id="XMLID_28_" class="st1" d="M607.1,468.7l-20-45.8h-20v45.8h-24.7V345h63.1c7.2,0,13.2,2.3,17.7,6.9
		c4.5,4.5,6.9,10.5,6.9,17.7v29c0,5.8-1.4,10.8-4.5,15c-3.1,4.1-7.2,6.9-12.3,8.5l20.6,46.9h-26.7V468.7z M605.1,374.2
		c0-4-2-5.8-5.8-5.8h-32.1v31.4h32.1c4,0,5.8-2,5.8-5.8V374.2z"/>
	<path id="XMLID_31_" class="st1" d="M668.9,468.7h-25.6L683.2,345H712l39.8,123.7h-26.7l-8.1-27.8h-40L668.9,468.7z M684.1,417.5
		h26.5l-13-45.3L684.1,417.5z"/>
</g>
<g id="XMLID_2_">
</g>
<g id="XMLID_34_">
</g>
<g id="XMLID_35_">
</g>
<g id="XMLID_36_">
</g>
<g id="XMLID_37_">
</g>
<g id="XMLID_38_">
</g>
<g id="XMLID_39_">
</g>
<g id="XMLID_40_">
</g>
<g id="XMLID_41_">
</g>
<g id="XMLID_42_">
</g>
<g id="XMLID_43_">
</g>
<g id="XMLID_44_">
</g>
<g id="XMLID_45_">
</g>
<g id="XMLID_46_">
</g>
<g id="XMLID_47_">
</g>
</svg>
