<?xml version="1.0" encoding="utf-8"?>
<!-- Generator: Adobe Illustrator 19.0.0, SVG Export Plug-In . SVG Version: 6.00 Build 0)  -->
<svg version="1.1" id="Layer_1" xmlns="http://www.w3.org/2000/svg" xmlns:xlink="http://www.w3.org/1999/xlink" x="0px" y="0px"
	 viewBox="400 -400 1000 1000" style="enable-background:new 400 -400 1000 1000;" xml:space="preserve">
<style type="text/css">
	.st0{fill:#61892F;}
</style>
<g>
	<path class="st0" d="M985.8,100l385.9-385.9c24.5-24.5,24.5-61.3,0-85.8c-24.5-24.5-61.3-24.5-85.8,0L900,14.3L514.1-371.6
		c-24.5-24.5-61.2-24.5-85.8,0c-24.5,24.5-24.5,61.3,0,85.8L811.2,100L428.4,485.9c-24.5,24.5-24.5,61.3,0,85.8
		c9.2,12.3,27.6,18.4,42.9,18.4c15.3,0,30.6-6.1,42.9-18.4L900,185.8l385.9,385.9c12.3,12.3,27.6,18.4,42.9,18.4s30.6-6.1,42.9-18.4
		c24.5-24.5,24.5-61.3,0-85.8L985.8,100z"/>
</g>
</svg>
